<?xml version="1.0" standalone="no"?><svg xmlns="http://www.w3.org/2000/svg" viewBox="0 0 1440 320"><path fill="#dfdfdf" fill-opacity="1" d="M0,32L75.8,128L151.6,96L227.4,256L303.2,192L378.9,224L454.7,192L530.5,192L606.3,224L682.1,256L757.9,192L833.7,320L909.5,160L985.3,256L1061.1,0L1136.8,224L1212.6,192L1288.4,288L1364.2,256L1440,288L1440,320L1364.2,320L1288.4,320L1212.6,320L1136.8,320L1061.1,320L985.3,320L909.5,320L833.7,320L757.9,320L682.1,320L606.3,320L530.5,320L454.7,320L378.9,320L303.2,320L227.4,320L151.6,320L75.8,320L0,320Z"></path></svg>